<svg width="25" height="25" viewBox="0 0 25 25" fill="none" xmlns="http://www.w3.org/2000/svg">
<path d="M12.5 14.2693C14.9428 14.2693 16.9231 12.289 16.9231 9.84623C16.9231 7.40344 14.9428 5.42316 12.5 5.42316C10.0572 5.42316 8.07697 7.40344 8.07697 9.84623C8.07697 12.289 10.0572 14.2693 12.5 14.2693Z" stroke="#636363" stroke-width="2" stroke-linecap="round" stroke-linejoin="round"/>
<path d="M4.9454 21.1692C5.73491 19.8732 6.84451 18.8021 8.16754 18.0591C9.49058 17.3158 10.9825 16.9254 12.5 16.9254C14.0175 16.9254 15.5095 17.3158 16.8325 18.0591C18.1556 18.8021 19.2651 19.8732 20.0547 21.1692" stroke="#636363" stroke-width="2" stroke-linecap="round" stroke-linejoin="round"/>
<path d="M12.5 24C18.8514 24 24 18.8514 24 12.5C24 6.14873 18.8514 1 12.5 1C6.14873 1 1 6.14873 1 12.5C1 18.8514 6.14873 24 12.5 24Z" stroke="#636363" stroke-width="2" stroke-linecap="round" stroke-linejoin="round"/>
</svg>
