<svg width="24" height="22" viewBox="0 0 24 22" fill="none" xmlns="http://www.w3.org/2000/svg">
<path d="M20.4391 1.60541L20.4391 1.60542L20.4409 1.61058L23.1643 9.61165V20.3304C23.1643 20.6758 22.8882 20.9357 22.5857 20.9357H21.2571C20.9547 20.9357 20.6786 20.6758 20.6786 20.3304V18.975V18.225H19.9286H3.98571H3.23571V18.975V20.3304C3.23571 20.6758 2.9596 20.9357 2.65714 20.9357H1.32857C1.02611 20.9357 0.75 20.6758 0.75 20.3304V9.61165L3.47241 1.61357C3.65505 1.09312 4.11696 0.75 4.65 0.75H19.2643C19.8058 0.75 20.2714 1.10057 20.4391 1.60541ZM1.94423 7.8992L1.62306 8.88214H2.65714H21.2571H22.2912L21.9701 7.8992L19.9772 1.8001L19.8082 1.28304H19.2643H4.65H4.10604L3.93709 1.8001L1.94423 7.8992ZM1.90714 12.8759C1.90714 14.4009 3.11903 15.6589 4.65 15.6589C6.18097 15.6589 7.39286 14.4009 7.39286 12.8759C7.39286 11.3509 6.18097 10.0929 4.65 10.0929C3.11903 10.0929 1.90714 11.3509 1.90714 12.8759ZM16.5214 12.8759C16.5214 14.4009 17.7333 15.6589 19.2643 15.6589C20.7953 15.6589 22.0071 14.4009 22.0071 12.8759C22.0071 11.3509 20.7953 10.0929 19.2643 10.0929C17.7333 10.0929 16.5214 11.3509 16.5214 12.8759Z" fill="white" stroke="#636363" stroke-width="1.5"/>
</svg>
