<svg width="24" height="23" viewBox="0 0 24 23" fill="none" xmlns="http://www.w3.org/2000/svg">
<path d="M7.71154 20.3846L1 22L2.67788 17.1538V2.61538C2.67788 2.18695 2.85467 1.77608 3.16932 1.47313C3.48399 1.17019 3.91076 1 4.35577 1H21.1346C21.5796 1 22.0064 1.17019 22.321 1.47313C22.6357 1.77608 22.8125 2.18695 22.8125 2.61538V18.7692C22.8125 19.1976 22.6357 19.6086 22.321 19.9115C22.0064 20.2144 21.5796 20.3846 21.1346 20.3846H7.71154Z" stroke="#636363" stroke-width="2" stroke-linecap="round" stroke-linejoin="round"/>
<path d="M12.7451 5.03818V10.692" stroke="#636363" stroke-width="2" stroke-linecap="round" stroke-linejoin="round"/>
<path d="M12.7452 15.1345C12.5135 15.1345 12.3257 14.9537 12.3257 14.7307C12.3257 14.5076 12.5135 14.3268 12.7452 14.3268" stroke="#636363" stroke-width="2" stroke-linecap="round" stroke-linejoin="round"/>
<path d="M12.7451 15.1347C12.9768 15.1347 13.1646 14.9538 13.1646 14.7308C13.1646 14.5078 12.9768 14.327 12.7451 14.327" stroke="#636363" stroke-width="2" stroke-linecap="round" stroke-linejoin="round"/>
</svg>
