<svg width="21" height="19" viewBox="0 0 21 19" fill="none" xmlns="http://www.w3.org/2000/svg">
<g clip-path="url(#clip0_7_57)">
<path d="M6.75 16.9643L0.75 18.3214L2.25 14.25V2.03571C2.25 1.67577 2.40804 1.33058 2.68933 1.07607C2.97064 0.821554 3.35217 0.67857 3.75 0.67857H18.75C19.1478 0.67857 19.5294 0.821554 19.8106 1.07607C20.0919 1.33058 20.25 1.67577 20.25 2.03571V15.6071C20.25 15.9671 20.0919 16.3123 19.8106 16.5668C19.5294 16.8212 19.1478 16.9643 18.75 16.9643H6.75Z" stroke="#9C2D2D" stroke-linecap="round" stroke-linejoin="round"/>
<path d="M11.25 4.07143V8.82143" stroke="#9C2D2D" stroke-linecap="round" stroke-linejoin="round"/>
<path d="M11.25 12.5536C11.0429 12.5536 10.875 12.4017 10.875 12.2143C10.875 12.0269 11.0429 11.875 11.25 11.875" stroke="#9C2D2D" stroke-linecap="round" stroke-linejoin="round"/>
<path d="M11.25 12.5536C11.4571 12.5536 11.625 12.4017 11.625 12.2143C11.625 12.0269 11.4571 11.875 11.25 11.875" stroke="#9C2D2D" stroke-linecap="round" stroke-linejoin="round"/>
</g>
<defs>
<clipPath id="clip0_7_57">
<rect width="21" height="19" fill="white"/>
</clipPath>
</defs>
</svg>
