<svg width="20" height="20" viewBox="0 0 20 20" fill="none" xmlns="http://www.w3.org/2000/svg">
<g clip-path="url(#clip0_7_47)">
<path d="M2.14287 2.85715C1.76398 2.85715 1.40062 3.00766 1.13271 3.27556C0.864804 3.54348 0.714294 3.90683 0.714294 4.28572V17.8571C0.714294 18.236 0.864804 18.5994 1.13271 18.8673C1.40062 19.1351 1.76398 19.2857 2.14287 19.2857H17.8572C18.236 19.2857 18.5994 19.1351 18.8673 18.8673C19.1352 18.5994 19.2857 18.236 19.2857 17.8571V4.28572C19.2857 3.90683 19.1352 3.54348 18.8673 3.27556C18.5994 3.00766 18.236 2.85715 17.8572 2.85715H15" stroke="#9C2D2D" stroke-linecap="round" stroke-linejoin="round"/>
<path d="M5 0.714287V5" stroke="#9C2D2D" stroke-linecap="round" stroke-linejoin="round"/>
<path d="M15 0.714287V5" stroke="#9C2D2D" stroke-linecap="round" stroke-linejoin="round"/>
<path d="M5 2.85715H12.1429" stroke="#9C2D2D" stroke-linecap="round" stroke-linejoin="round"/>
<path d="M10.3553 6.6463L11.5505 9.05053C11.5772 9.11133 11.6196 9.16396 11.6733 9.20302C11.727 9.24209 11.7902 9.26621 11.8562 9.27289L14.5106 9.6759C14.5864 9.68578 14.658 9.71706 14.7167 9.76608C14.7756 9.8151 14.8192 9.87983 14.8424 9.95272C14.8657 10.0256 14.8679 10.1036 14.8484 10.1777C14.8292 10.2517 14.789 10.3187 14.733 10.3708L12.7735 12.233C12.7442 12.2887 12.729 12.3507 12.729 12.4137C12.729 12.4766 12.7442 12.5386 12.7735 12.5943L13.1487 15.2349C13.1647 15.3111 13.1582 15.3904 13.13 15.4631C13.1019 15.5359 13.0532 15.5989 12.9899 15.6444C12.9267 15.69 12.8515 15.7163 12.7736 15.7201C12.6958 15.7239 12.6184 15.7049 12.5511 15.6656L10.1886 14.4149C10.1274 14.3873 10.0611 14.373 9.994 14.373C9.9269 14.373 9.86059 14.3873 9.79944 14.4149L7.4369 15.6656C7.36956 15.7049 7.29224 15.7239 7.21436 15.7201C7.13646 15.7163 7.06133 15.69 6.99807 15.6444C6.93482 15.5989 6.88614 15.5359 6.85797 15.4631C6.82979 15.3904 6.82332 15.3111 6.83933 15.2349L7.28403 12.5943C7.30316 12.533 7.30682 12.468 7.2947 12.4049C7.28257 12.3419 7.25504 12.2828 7.21454 12.233L5.25503 10.3569C5.20306 10.3042 5.16657 10.2383 5.14959 10.1663C5.1326 10.0943 5.13577 10.019 5.15873 9.94863C5.1817 9.8783 5.22357 9.81566 5.27979 9.76755C5.336 9.71945 5.40436 9.68773 5.47739 9.6759L8.13177 9.28678C8.19784 9.28009 8.26097 9.25599 8.31469 9.21692C8.3684 9.17786 8.41079 9.12523 8.4375 9.06442L9.63267 6.6602C9.66466 6.59215 9.71503 6.53439 9.77813 6.49346C9.84122 6.45255 9.9145 6.43009 9.98969 6.42865C10.0649 6.4272 10.139 6.44682 10.2036 6.48529C10.2682 6.52375 10.3208 6.57952 10.3553 6.6463Z" stroke="#9C2D2D" stroke-linecap="round" stroke-linejoin="round"/>
</g>
<defs>
<clipPath id="clip0_7_47">
<rect width="20" height="20" fill="white"/>
</clipPath>
</defs>
</svg>
