<svg width="22" height="22" viewBox="0 0 22 22" fill="none" xmlns="http://www.w3.org/2000/svg">
<path d="M10.7684 12.3296C12.8434 12.3296 14.5255 10.6388 14.5255 8.55304C14.5255 6.46733 12.8434 4.77652 10.7684 4.77652C8.69342 4.77652 7.01132 6.46733 7.01132 8.55304C7.01132 10.6388 8.69342 12.3296 10.7684 12.3296Z" stroke="#9C2D2D" stroke-linecap="round" stroke-linejoin="round"/>
<path d="M4.35129 18.221C5.02191 17.1145 5.96444 16.1999 7.08825 15.5655C8.21207 14.9308 9.47937 14.5975 10.7684 14.5975C12.0574 14.5975 13.3247 14.9308 14.4485 15.5655C15.5723 16.1999 16.5148 17.1145 17.1855 18.221" stroke="#9C2D2D" stroke-linecap="round" stroke-linejoin="round"/>
<path d="M10.7684 20.6379C16.1634 20.6379 20.5368 16.2419 20.5368 10.819C20.5368 5.3961 16.1634 1 10.7684 1C5.37345 1 1 5.3961 1 10.819C1 16.2419 5.37345 20.6379 10.7684 20.6379Z" stroke="#9C2D2D" stroke-linecap="round" stroke-linejoin="round"/>
<path d="M10.7684 20.6379C16.1634 20.6379 20.5368 16.2419 20.5368 10.819C20.5368 5.3961 16.1634 1 10.7684 1C5.37345 1 1 5.3961 1 10.819C1 16.2419 5.37345 20.6379 10.7684 20.6379Z" stroke="#9C2D2D" stroke-linecap="round" stroke-linejoin="round"/>
</svg>
