<svg width="20" height="19" viewBox="0 0 20 19" fill="none" xmlns="http://www.w3.org/2000/svg">
<path d="M17.2123 1.35055L17.2134 1.35388L19.5 8.39169V17.8125C19.5 18.2213 19.1931 18.5 18.8889 18.5H17.7778C17.4736 18.5 17.1667 18.2213 17.1667 17.8125V16.625V16.125H16.6667H3.33333H2.83333V16.625V17.8125C2.83333 18.2213 2.5264 18.5 2.22222 18.5H1.11111C0.806936 18.5 0.5 18.2213 0.5 17.8125V8.39169L2.7855 1.35736C2.78568 1.35682 2.78586 1.35628 2.78604 1.35574C2.96107 0.832216 3.3995 0.5 3.88889 0.5H16.1111C16.6058 0.5 17.0495 0.837176 17.2123 1.35055ZM1.7449 6.97613L1.54252 7.625H2.22222H17.7778H18.4575L18.2551 6.97613L16.5884 1.63238L16.4789 1.28125H16.1111H3.88889H3.52108L3.41157 1.63238L1.7449 6.97613ZM1.72222 11.2812C1.72222 12.5112 2.65973 13.5625 3.88889 13.5625C5.11805 13.5625 6.05556 12.5112 6.05556 11.2812C6.05556 10.0513 5.11805 9 3.88889 9C2.65973 9 1.72222 10.0513 1.72222 11.2812ZM13.9444 11.2812C13.9444 12.5112 14.882 13.5625 16.1111 13.5625C17.3403 13.5625 18.2778 12.5112 18.2778 11.2812C18.2778 10.0513 17.3403 9 16.1111 9C14.882 9 13.9444 10.0513 13.9444 11.2812Z" fill="white" stroke="#9C2D2D"/>
</svg>
