<svg width="24" height="24" viewBox="0 0 24 24" fill="none" xmlns="http://www.w3.org/2000/svg">
<g clip-path="url(#clip0_44_6)">
<g filter="url(#filter0_d_44_6)">
<path d="M12.991 16.716C16.0681 16.716 18.5624 14.2216 18.5624 11.1445C18.5624 8.06753 16.0681 5.57312 12.991 5.57312C9.91404 5.57312 7.41962 8.06753 7.41962 11.1445C7.41962 14.2216 9.91404 16.716 12.991 16.716Z" stroke="#9C2D2D" stroke-width="2" stroke-linecap="round" stroke-linejoin="round"/>
<path d="M16.934 15.0873L9.04828 7.2016" stroke="#9C2D2D" stroke-width="2" stroke-linecap="round" stroke-linejoin="round"/>
<path d="M7.71426 21.4286L0.857117 23.1429L2.5714 18V2.57143C2.5714 2.11677 2.75202 1.68074 3.0735 1.35925C3.395 1.03776 3.83103 0.857147 4.28569 0.857147H21.4285C21.8832 0.857147 22.3193 1.03776 22.6407 1.35925C22.9621 1.68074 23.1428 2.11677 23.1428 2.57143V19.7143C23.1428 20.1689 22.9621 20.605 22.6407 20.9265C22.3193 21.2479 21.8832 21.4286 21.4285 21.4286H7.71426Z" stroke="#9C2D2D" stroke-width="2" stroke-linecap="round" stroke-linejoin="round"/>
</g>
<path d="M7.71432 21.4284L0.857178 23.1426L2.57146 17.9998V2.57122C2.57146 2.11656 2.75208 1.68053 3.07356 1.35904C3.39506 1.03755 3.83109 0.856934 4.28575 0.856934H21.4286C21.8832 0.856934 22.3193 1.03755 22.6408 1.35904C22.9622 1.68053 23.1429 2.11656 23.1429 2.57122V19.7141C23.1429 20.1687 22.9622 20.6048 22.6408 20.9262C22.3193 21.2477 21.8832 21.4284 21.4286 21.4284H7.71432Z" stroke="#9C2D2D" stroke-width="2" stroke-linecap="round" stroke-linejoin="round"/>
</g>
<defs>
<filter id="filter0_d_44_6" x="-4.14288" y="-0.142853" width="32.2857" height="32.2857" filterUnits="userSpaceOnUse" color-interpolation-filters="sRGB">
<feFlood flood-opacity="0" result="BackgroundImageFix"/>
<feColorMatrix in="SourceAlpha" type="matrix" values="0 0 0 0 0 0 0 0 0 0 0 0 0 0 0 0 0 0 127 0" result="hardAlpha"/>
<feOffset dy="4"/>
<feGaussianBlur stdDeviation="2"/>
<feComposite in2="hardAlpha" operator="out"/>
<feColorMatrix type="matrix" values="0 0 0 0 0 0 0 0 0 0 0 0 0 0 0 0 0 0 0.25 0"/>
<feBlend mode="normal" in2="BackgroundImageFix" result="effect1_dropShadow_44_6"/>
<feBlend mode="normal" in="SourceGraphic" in2="effect1_dropShadow_44_6" result="shape"/>
</filter>
<clipPath id="clip0_44_6">
<rect width="24" height="24" fill="white"/>
</clipPath>
</defs>
</svg>
