<svg width="24" height="24" viewBox="0 0 24 24" fill="none" xmlns="http://www.w3.org/2000/svg">
<g clip-path="url(#clip0_1001_2148)">
<path d="M12.9911 16.7161C16.0681 16.7161 18.5625 14.2217 18.5625 11.1447C18.5625 8.06765 16.0681 5.57324 12.9911 5.57324C9.9141 5.57324 7.41968 8.06765 7.41968 11.1447C7.41968 14.2217 9.9141 16.7161 12.9911 16.7161Z" stroke="#9C2D2D" stroke-linecap="round" stroke-linejoin="round"/>
<path d="M16.9341 15.0874L9.04834 7.20166" stroke="#9C2D2D" stroke-linecap="round" stroke-linejoin="round"/>
<path d="M7.71432 21.4286L0.857178 23.1429L2.57146 18V2.57146C2.57146 2.1168 2.75208 1.68077 3.07356 1.35928C3.39506 1.03779 3.83109 0.857178 4.28575 0.857178H21.4286C21.8832 0.857178 22.3193 1.03779 22.6408 1.35928C22.9622 1.68077 23.1429 2.1168 23.1429 2.57146V19.7143C23.1429 20.1689 22.9622 20.6051 22.6408 20.9265C22.3193 21.2479 21.8832 21.4286 21.4286 21.4286H7.71432Z" stroke="#9C2D2D" stroke-linecap="round" stroke-linejoin="round"/>
<path d="M7.71432 21.4284L0.857178 23.1426L2.57146 17.9998V2.57122C2.57146 2.11656 2.75208 1.68053 3.07356 1.35904C3.39506 1.03755 3.83109 0.856934 4.28575 0.856934H21.4286C21.8832 0.856934 22.3193 1.03755 22.6408 1.35904C22.9622 1.68053 23.1429 2.11656 23.1429 2.57122V19.7141C23.1429 20.1687 22.9622 20.6048 22.6408 20.9262C22.3193 21.2477 21.8832 21.4284 21.4286 21.4284H7.71432Z" stroke="#9C2D2D" stroke-linecap="round" stroke-linejoin="round"/>
</g>
<defs>
<clipPath id="clip0_1001_2148">
<rect width="24" height="24" fill="white"/>
</clipPath>
</defs>
</svg>
