<svg width="19" height="15" viewBox="0 0 19 15" fill="none" xmlns="http://www.w3.org/2000/svg">
<path fill-rule="evenodd" clip-rule="evenodd" d="M12.0821 8.73938C12.817 8.9363 13.5724 8.50017 13.7693 7.76527L14.0949 6.55031C14.2918 5.81541 13.8557 5.06002 13.1208 4.8631L5.87252 2.92094C5.13762 2.72402 4.38223 3.16015 4.18531 3.89505L3.85976 5.11001C3.66284 5.84491 4.09897 6.6003 4.83388 6.79722L12.0821 8.73938ZM15.6207 8.26134C15.1498 10.0187 13.3434 11.0616 11.586 10.5907L4.33781 8.64858C2.58042 8.17769 1.53752 6.37132 2.0084 4.61394L2.33395 3.39898C2.80484 1.6416 4.61121 0.598695 6.36859 1.06958L13.6168 3.01174C15.3742 3.48263 16.4171 5.289 15.9462 7.04638L15.6207 8.26134Z" fill="#FFAB33"/>
<path fill-rule="evenodd" clip-rule="evenodd" d="M17.6733 5.03045C18.1845 5.16745 18.4879 5.69294 18.3509 6.20418L17.2347 10.3697C17.0977 10.881 16.5722 11.1844 16.061 11.0474C15.5498 10.9104 15.2464 10.3849 15.3834 9.87363L16.4996 5.70808C16.6366 5.19685 17.1621 4.89346 17.6733 5.03045ZM8.27213 8.01348C8.73049 8.27812 8.88754 8.86422 8.6229 9.32259L7.5266 11.2215L7.52659 11.2215C7.03265 12.077 6.11847 12.6026 5.13059 12.5991H5.13057L2.73173 12.5904V13.3356C2.73173 13.8649 2.30267 14.2939 1.7734 14.2939C1.24412 14.2939 0.815063 13.8649 0.815063 13.3356V10.1012C0.815063 9.57196 1.24412 9.1429 1.7734 9.1429C2.30267 9.1429 2.73173 9.57196 2.73173 10.1012V10.6737L5.13749 10.6824C5.13749 10.6824 5.1375 10.6824 5.1375 10.6824C5.43815 10.6835 5.71638 10.5235 5.86671 10.2631C5.86671 10.2631 5.86672 10.2631 5.86672 10.2631L6.96302 8.36425C7.22766 7.90589 7.81377 7.74884 8.27213 8.01348Z" fill="#FFAB33"/>
</svg>
