<svg width="44" height="59" viewBox="0 0 44 59" fill="none" xmlns="http://www.w3.org/2000/svg">
<path d="M22 58.9999C21.4387 59.0041 20.8901 58.8317 20.4306 58.5067C19.9711 58.1817 19.6236 57.7203 19.4365 57.1867C16.567 49.2109 5.86349 37.2712 5.7487 37.1459L5.68175 37.0591C2.82659 33.8753 0.948879 29.9248 0.276313 25.6864C-0.396254 21.448 0.165212 17.104 1.89263 13.181C3.62005 9.25798 6.43922 5.92455 10.0083 3.58493C13.5773 1.24531 17.7429 0 22 0C26.2571 0 30.4227 1.24531 33.9917 3.58493C37.5608 5.92455 40.38 9.25798 42.1074 13.181C43.8348 17.104 44.3963 21.448 43.7237 25.6864C43.0511 29.9248 41.1734 33.8753 38.3183 37.0591L38.2513 37.1459C38.1365 37.2712 27.433 49.2109 24.5635 57.1867C24.3776 57.7211 24.0304 58.1834 23.5706 58.5086C23.1109 58.8338 22.5616 59.0056 22 58.9999Z" fill="#DF8A11"/>
<path d="M42 22.2104C42 16.8503 39.8928 11.7097 36.1421 7.91949C32.3914 4.1293 27.3043 2 22 2C16.6957 2 11.6086 4.1293 7.85786 7.91949C4.10714 11.7097 2 16.8503 2 22.2104C2.00015 27.2507 3.87292 32.1073 7.24761 35.8188C7.24761 35.8188 18.2286 48.0316 21.2571 56.4526C21.311 56.6123 21.413 56.7509 21.5488 56.8491C21.6846 56.9472 21.8473 57 22.0143 57C22.1812 57 22.344 56.9472 22.4797 56.8491C22.6155 56.7509 22.7175 56.6123 22.7714 56.4526C25.8 48.0316 36.7714 35.8188 36.7714 35.8188C40.14 32.1049 42.006 27.2483 42 22.2104Z" fill="#FFAB33"/>
<path fill-rule="evenodd" clip-rule="evenodd" d="M26.9803 23.1702C27.9708 23.4356 28.9889 22.8478 29.2543 21.8573L29.6931 20.2197C29.9585 19.2292 29.3707 18.2111 28.3802 17.9457L18.6108 15.328C17.6203 15.0625 16.6022 15.6504 16.3367 16.6409L15.898 18.2784C15.6326 19.269 16.2204 20.2871 17.2109 20.5525L26.9803 23.1702ZM31.7496 22.5259C31.115 24.8945 28.6803 26.3002 26.3117 25.6655L16.5423 23.0478C14.1736 22.4131 12.768 19.9785 13.4027 17.6098L13.8414 15.9723C14.4761 13.6036 16.9108 12.198 19.2794 12.8327L29.0488 15.4503C31.4174 16.085 32.8231 18.5197 32.1884 20.8883L31.7496 22.5259Z" fill="white"/>
<path fill-rule="evenodd" clip-rule="evenodd" d="M34.5163 18.1715C35.2053 18.3562 35.6143 19.0645 35.4296 19.7535L33.9251 25.368C33.7405 26.057 33.0322 26.4659 32.3432 26.2813C31.6541 26.0966 31.2452 25.3884 31.4298 24.6993L32.9343 19.0849C33.119 18.3958 33.8272 17.9869 34.5163 18.1715ZM21.8451 22.1921C22.4629 22.5488 22.6746 23.3388 22.3179 23.9566L20.8403 26.5159L20.8403 26.5159C20.1745 27.669 18.9424 28.3775 17.6109 28.3727H17.6109L14.3776 28.361V29.3654C14.3776 30.0788 13.7993 30.6571 13.086 30.6571C12.3726 30.6571 11.7943 30.0788 11.7943 29.3654V25.0061C11.7943 24.2927 12.3726 23.7144 13.086 23.7144C13.7993 23.7144 14.3776 24.2927 14.3776 25.0061V25.7777L17.6202 25.7894C17.6202 25.7894 17.6202 25.7894 17.6202 25.7894C18.0254 25.7908 18.4004 25.5752 18.6031 25.2243C18.6031 25.2243 18.6031 25.2243 18.6031 25.2243L20.0807 22.6649C20.4374 22.0471 21.2273 21.8355 21.8451 22.1921Z" fill="white"/>
</svg>
