<svg width="20" height="20" viewBox="0 0 20 20" fill="none" xmlns="http://www.w3.org/2000/svg">
<g clip-path="url(#clip0_7_183)">
<path d="M17.4961 12.0891C17.4961 4.93376 11.1772 1.62337 8.20093 0.848213C9.31467 3.63344 9.25411 5.69524 7.81639 8.23606C7.58361 8.6474 7.01761 8.68824 6.70504 8.33373L4.87609 6.25941C0.0921886 11.3427 2.84637 19.5191 10.4216 19.139C16.2174 18.7811 17.4961 14.9211 17.4961 12.0891Z" stroke="#D23838" stroke-width="2" stroke-linecap="round" stroke-linejoin="round"/>
<path d="M8.0964 15.6053L12.7869 10.9148" stroke="#D23838" stroke-width="2" stroke-linecap="round" stroke-linejoin="round"/>
<path d="M8.66456 11.5967C8.4673 11.5967 8.30742 11.4368 8.30742 11.2395C8.30742 11.0423 8.4673 10.8824 8.66456 10.8824" stroke="#D23838" stroke-width="2" stroke-linecap="round" stroke-linejoin="round"/>
<path d="M8.66456 11.5967C8.8618 11.5967 9.0217 11.4368 9.0217 11.2395C9.0217 11.0423 8.8618 10.8824 8.66456 10.8824" stroke="#D23838" stroke-width="2" stroke-linecap="round" stroke-linejoin="round"/>
<path d="M12.463 15.6383C12.2658 15.6383 12.1059 15.4783 12.1059 15.2811C12.1059 15.0839 12.2658 14.924 12.463 14.924" stroke="#D23838" stroke-width="2" stroke-linecap="round" stroke-linejoin="round"/>
<path d="M12.463 15.6383C12.6603 15.6383 12.8202 15.4783 12.8202 15.2811C12.8202 15.0839 12.6603 14.924 12.463 14.924" stroke="#D23838" stroke-width="2" stroke-linecap="round" stroke-linejoin="round"/>
</g>
<defs>
<clipPath id="clip0_7_183">
<rect width="20" height="20" fill="white"/>
</clipPath>
</defs>
</svg>
