<?xml version="1.0" standalone="no"?>
<!DOCTYPE svg PUBLIC "-//W3C//DTD SVG 20010904//EN"
 "http://www.w3.org/TR/2001/REC-SVG-20010904/DTD/svg10.dtd">
<svg version="1.0" xmlns="http://www.w3.org/2000/svg"
 width="354.000000pt" height="354.000000pt" viewBox="0 0 354.000000 354.000000"
 preserveAspectRatio="xMidYMid meet">

<g transform="translate(0.000000,354.000000) scale(0.100000,-0.100000)"
fill="#000000" stroke="none">
<path d="M900 1775 l0 -935 430 0 430 0 6 27 c8 29 -2 384 -12 451 l-7 42 94
0 c369 0 613 108 714 314 57 116 69 180 69 356 0 176 -12 238 -71 354 -90 179
-276 284 -558 316 -49 5 -316 10 -592 10 l-503 0 0 -935z m991 434 c37 -40 50
-84 55 -189 4 -70 0 -96 -18 -149 -86 -243 -256 9 -178 262 32 105 87 134 141
76z m350 0 c37 -40 50 -84 55 -189 4 -70 0 -96 -18 -149 -86 -243 -256 9 -178
262 32 105 87 134 141 76z"/>
<path d="M1846 2044 c-43 -42 -22 -144 29 -144 34 0 63 59 51 104 -12 50 -51
69 -80 40z"/>
<path d="M2196 2044 c-43 -42 -22 -144 29 -144 34 0 63 59 51 104 -12 50 -51
69 -80 40z"/>
</g>
</svg>
