<svg width="211" height="74" viewBox="0 0 211 74" fill="none" xmlns="http://www.w3.org/2000/svg">
<path d="M92.0713 23.8C94.3513 23.8 96.3313 24.184 98.0113 24.952C99.6913 25.696 100.987 26.776 101.899 28.192C102.811 29.584 103.267 31.228 103.267 33.124C103.267 35.02 102.811 36.664 101.899 38.056C100.987 39.448 99.6913 40.528 98.0113 41.296C96.3313 42.04 94.3513 42.412 92.0713 42.412H87.6793V49H80.5513V23.8H92.0713ZM91.6393 36.796C93.1033 36.796 94.2073 36.484 94.9513 35.86C95.6953 35.212 96.0673 34.3 96.0673 33.124C96.0673 31.948 95.6953 31.036 94.9513 30.388C94.2073 29.74 93.1033 29.416 91.6393 29.416H87.6793V36.796H91.6393ZM127.012 29.488V49H120.496V47.056C119.224 48.568 117.304 49.324 114.736 49.324C112.96 49.324 111.34 48.916 109.876 48.1C108.436 47.26 107.284 46.072 106.42 44.536C105.58 43 105.16 41.224 105.16 39.208C105.16 37.192 105.58 35.428 106.42 33.916C107.284 32.38 108.436 31.204 109.876 30.388C111.34 29.572 112.96 29.164 114.736 29.164C117.04 29.164 118.852 29.836 120.172 31.18V29.488H127.012ZM116.176 43.888C117.376 43.888 118.36 43.48 119.128 42.664C119.896 41.824 120.28 40.672 120.28 39.208C120.28 37.768 119.896 36.64 119.128 35.824C118.36 35.008 117.376 34.6 116.176 34.6C114.976 34.6 113.992 35.008 113.224 35.824C112.456 36.64 112.072 37.768 112.072 39.208C112.072 40.672 112.456 41.824 113.224 42.664C113.992 43.48 114.976 43.888 116.176 43.888ZM137.931 31.828C138.627 30.94 139.527 30.28 140.631 29.848C141.759 29.392 143.043 29.164 144.483 29.164V35.32C143.859 35.248 143.343 35.212 142.935 35.212C141.471 35.212 140.319 35.608 139.479 36.4C138.663 37.192 138.255 38.404 138.255 40.036V49H131.415V29.488H137.931V31.828ZM156.161 42.16L154.145 44.212V49H147.305V22.288H154.145V36.292L161.129 29.488H169.229L161.129 37.84L169.913 49H161.633L156.161 42.16ZM181.546 44.104C182.482 44.104 183.286 43.972 183.958 43.708C184.654 43.444 185.35 43.012 186.046 42.412L189.61 46.156C187.762 48.268 185.002 49.324 181.33 49.324C179.05 49.324 177.046 48.892 175.318 48.028C173.59 47.164 172.246 45.964 171.286 44.428C170.35 42.892 169.882 41.152 169.882 39.208C169.882 37.288 170.35 35.572 171.286 34.06C172.222 32.524 173.506 31.324 175.138 30.46C176.794 29.596 178.642 29.164 180.682 29.164C182.578 29.164 184.306 29.56 185.866 30.352C187.45 31.12 188.71 32.26 189.646 33.772C190.582 35.26 191.05 37.036 191.05 39.1L177.118 41.764C177.862 43.324 179.338 44.104 181.546 44.104ZM180.718 34.024C179.542 34.024 178.582 34.396 177.838 35.14C177.094 35.86 176.674 36.904 176.578 38.272L184.498 36.724C184.258 35.908 183.802 35.26 183.13 34.78C182.458 34.276 181.654 34.024 180.718 34.024ZM200.72 31.828C201.416 30.94 202.316 30.28 203.42 29.848C204.548 29.392 205.832 29.164 207.272 29.164V35.32C206.648 35.248 206.132 35.212 205.724 35.212C204.26 35.212 203.108 35.608 202.268 36.4C201.452 37.192 201.044 38.404 201.044 40.036V49H194.204V29.488H200.72V31.828Z" fill="black"/>
<path fill-rule="evenodd" clip-rule="evenodd" d="M64.5799 40.1707C66.1341 36.9155 67 33.2976 67 29.4866C67 15.2473 54.9117 3.7041 40 3.7041C25.0883 3.7041 13 15.2473 13 29.4866C13 33.2976 13.8659 36.9155 15.4201 40.1707H15.4119C15.4303 40.2032 15.4486 40.2356 15.4668 40.268C16.2533 41.8972 17.2125 43.4346 18.3221 44.859C22.1537 50.3981 25.3815 52.5615 28.4959 54.6489C32.4092 57.2719 36.1435 59.7748 40.6717 68.7041C45.1007 59.3947 48.4761 56.9089 52.1941 54.171C54.6677 52.3494 57.293 50.4161 60.481 46.2874C62.1141 44.4736 63.4876 42.4405 64.5463 40.2406C64.5603 40.2173 64.5742 40.194 64.5881 40.1707H64.5799Z" fill="#1A1A1A"/>
<path d="M50.702 20.3364C50.3969 19.4629 49.5426 18.8411 48.5358 18.8411H31.756C30.7492 18.8411 29.9102 19.4629 29.5899 20.3364L26.4169 29.205V41.0496C26.4169 41.8639 27.1034 42.5301 27.9424 42.5301H29.4678C30.3068 42.5301 30.9933 41.8639 30.9933 41.0496V39.569H49.2986V41.0496C49.2986 41.8639 49.985 42.5301 50.824 42.5301H52.3494C53.1884 42.5301 53.8749 41.8639 53.8749 41.0496V29.205L50.702 20.3364ZM31.756 35.1273C30.4899 35.1273 29.4678 34.1353 29.4678 32.9064C29.4678 31.6776 30.4899 30.6856 31.756 30.6856C33.0221 30.6856 34.0441 31.6776 34.0441 32.9064C34.0441 34.1353 33.0221 35.1273 31.756 35.1273ZM48.5358 35.1273C47.2697 35.1273 46.2477 34.1353 46.2477 32.9064C46.2477 31.6776 47.2697 30.6856 48.5358 30.6856C49.802 30.6856 50.824 31.6776 50.824 32.9064C50.824 34.1353 49.802 35.1273 48.5358 35.1273ZM29.4678 27.7245L31.756 21.0619H48.5358L50.824 27.7245H29.4678Z" fill="white"/>
</svg>
