<svg width="27" height="27" viewBox="0 0 27 27" fill="none" xmlns="http://www.w3.org/2000/svg">
<g clip-path="url(#clip0_218_2398)" filter="url(#filter0_d_218_2398)">
<path d="M18.25 0.678467H8.75002C6.50144 0.678467 4.67859 2.50131 4.67859 4.7499V14.2499C4.67859 16.4985 6.50144 18.3213 8.75002 18.3213H18.25C20.4987 18.3213 22.3214 16.4985 22.3214 14.2499V4.7499C22.3214 2.50131 20.4987 0.678467 18.25 0.678467Z" stroke="#015900" stroke-width="3" stroke-linecap="round" stroke-linejoin="round"/>
<path d="M11.0693 14.2683V10.2946M11.0693 10.2946V4.73145H15.3916C16.5159 4.73145 17.4273 5.64286 17.4273 6.76716V8.25893C17.4273 9.38323 16.5159 10.2946 15.3916 10.2946H11.0693Z" stroke="#015900" stroke-width="3" stroke-linecap="round" stroke-linejoin="round"/>
</g>
<defs>
<filter id="filter0_d_218_2398" x="0" y="0" width="27" height="27" filterUnits="userSpaceOnUse" color-interpolation-filters="sRGB">
<feFlood flood-opacity="0" result="BackgroundImageFix"/>
<feColorMatrix in="SourceAlpha" type="matrix" values="0 0 0 0 0 0 0 0 0 0 0 0 0 0 0 0 0 0 127 0" result="hardAlpha"/>
<feOffset dy="4"/>
<feGaussianBlur stdDeviation="2"/>
<feComposite in2="hardAlpha" operator="out"/>
<feColorMatrix type="matrix" values="0 0 0 0 0 0 0 0 0 0 0 0 0 0 0 0 0 0 0.25 0"/>
<feBlend mode="normal" in2="BackgroundImageFix" result="effect1_dropShadow_218_2398"/>
<feBlend mode="normal" in="SourceGraphic" in2="effect1_dropShadow_218_2398" result="shape"/>
</filter>
<clipPath id="clip0_218_2398">
<rect width="19" height="19" fill="white" transform="translate(4)"/>
</clipPath>
</defs>
</svg>
