<?xml version="1.0" standalone="no"?>
<!DOCTYPE svg PUBLIC "-//W3C//DTD SVG 20010904//EN"
 "http://www.w3.org/TR/2001/REC-SVG-20010904/DTD/svg10.dtd">
<svg version="1.0" xmlns="http://www.w3.org/2000/svg"
 width="220.000000pt" height="229.000000pt" viewBox="0 0 220.000000 229.000000"
 preserveAspectRatio="xMidYMid meet">

<g transform="translate(0.000000,229.000000) scale(0.100000,-0.100000)"
fill="#000000" stroke="none">
<path d="M0 1945 l0 -345 61 0 61 0 -7 -37 c-4 -21 -8 -39 -9 -40 -1 -1 -20
-3 -43 -4 -49 -3 -49 -4 -57 -129 -5 -82 -5 -83 5 -23 16 107 30 138 63 141
24 3 28 1 22 -15 -4 -10 -10 -31 -13 -48 -3 -16 -10 -38 -15 -48 -10 -20 -18
-147 -9 -144 4 1 16 -7 28 -18 40 -37 142 -85 221 -105 207 -51 329 -32 433
67 32 31 61 64 64 74 3 10 -3 57 -14 104 -31 127 -29 135 18 135 44 0 46 -3
56 -82 5 -39 3 -64 -8 -90 -23 -56 -16 -117 18 -163 17 -21 23 -35 15 -30 -12
7 -13 6 -5 -6 14 -19 19 -69 7 -69 -14 0 -33 26 -35 47 -2 32 -42 26 -79 -12
-36 -37 -83 -51 -107 -32 -12 10 -13 9 -7 -1 6 -11 -54 -12 -328 -6 l-336 7 0
-33 0 -33 345 6 c190 3 345 3 345 0 0 -3 -16 -23 -35 -46 -19 -22 -35 -43 -35
-47 0 -3 -24 -16 -54 -29 -30 -12 -62 -31 -71 -42 -10 -10 -24 -19 -31 -19 -7
0 -39 -29 -71 -64 -75 -82 -99 -152 -96 -277 2 -83 2 -87 -21 -93 -12 -3 -35
-18 -49 -32 -31 -31 -36 -86 -12 -121 31 -45 143 -56 220 -23 66 28 105 20
130 -28 23 -43 97 -91 155 -102 52 -10 311 0 304 11 -3 5 -24 9 -48 9 l-43 0
55 55 55 55 219 -2 219 -1 14 -27 c19 -37 83 -87 135 -105 48 -17 360 -21 360
-5 0 6 -24 10 -53 10 l-54 0 44 48 c52 57 59 64 101 102 42 39 72 104 71 155
-1 39 -2 38 -9 -11 -4 -28 -13 -61 -20 -75 -13 -25 -70 -89 -79 -89 -4 0 -6
33 -6 73 -1 79 -20 130 -71 181 -158 157 -423 49 -442 -179 l-5 -65 -81 -1
c-44 -1 -85 -1 -89 0 -7 1 -196 10 -234 11 -9 0 -13 21 -13 73 0 90 -25 138
-93 184 -180 121 -417 2 -417 -209 0 -35 -2 -38 -29 -38 -29 0 -30 1 -19 30
21 63 -30 116 -123 127 -37 4 -49 10 -53 27 -9 34 -7 38 16 31 23 -7 23 -7 -1
11 -21 15 -23 22 -18 78 5 68 41 158 79 199 24 26 63 35 84 20 5 -5 1 0 -10
10 -10 10 -17 19 -15 21 49 38 126 86 138 86 9 0 35 -7 58 -15 49 -17 554 -22
944 -9 262 8 263 8 354 -84 60 -59 117 -163 137 -249 l12 -49 37 18 c21 10 45
18 54 18 12 0 15 15 15 84 l0 83 -46 7 c-26 3 -60 6 -75 6 -26 0 -40 14 -21
22 4 2 22 24 40 50 29 42 41 86 27 100 -3 3 -7 133 -10 289 -2 156 -7 370 -10
474 -3 105 -6 295 -8 422 -1 128 -5 233 -9 233 -13 0 -17 -100 -10 -247 4 -84
4 -149 1 -145 -4 4 -16 34 -27 67 -11 33 -35 98 -52 145 -18 47 -39 106 -48
133 l-16 47 -684 0 -683 0 7 -22 c15 -48 22 -91 17 -104 -3 -8 -1 -14 5 -14 5
0 13 -26 17 -57 4 -31 11 -68 16 -82 6 -13 11 -36 13 -50 2 -14 12 -60 22
-101 10 -41 18 -99 18 -127 0 -51 8 -66 20 -40 3 6 4 0 1 -15 -3 -14 0 -28 6
-30 6 -2 11 -33 11 -73 1 -39 7 -79 13 -90 17 -29 48 -163 41 -181 -4 -9 -2
-12 5 -8 19 11 6 -13 -31 -61 -19 -24 -41 -44 -48 -45 -6 0 -21 -9 -32 -20
-30 -30 -122 -53 -183 -46 -95 11 -102 12 -137 21 -34 8 -34 9 -10 16 l25 7
-25 1 c-22 1 -23 3 -9 14 65 51 72 59 62 65 -6 4 -13 25 -16 47 l-4 40 -1 -42
c-2 -31 -6 -43 -17 -43 -11 0 -15 11 -15 40 0 22 5 40 10 40 6 0 10 26 10 58
0 67 12 94 29 66 9 -17 10 -17 11 -2 0 13 11 18 43 20 34 2 49 -3 80 -25 28
-22 37 -25 37 -13 0 12 10 16 34 16 23 0 36 6 41 17 3 10 1 19 -4 21 -6 2 -11
16 -11 30 0 49 -17 57 -24 13 -8 -50 -26 -54 -26 -7 0 19 -4 38 -10 41 -6 4
-10 -10 -10 -34 0 -40 -1 -41 -35 -41 -34 0 -35 1 -35 40 0 39 -1 40 -35 40
-34 0 -35 1 -35 40 0 29 4 40 15 40 11 0 15 11 15 40 0 33 -3 40 -20 40 -18 0
-20 -7 -20 -80 0 -56 -4 -80 -12 -80 -9 0 -9 -3 0 -12 7 -7 12 -25 12 -40 0
-21 -5 -28 -19 -28 -18 0 -19 6 -14 73 3 39 9 88 14 107 5 19 9 63 9 96 0 89
9 124 31 124 15 0 19 8 19 40 0 33 -3 40 -20 40 -17 0 -20 7 -20 40 l0 40 40
0 40 0 0 -40 c0 -33 3 -40 20 -40 15 0 20 7 20 29 0 16 2 41 4 57 2 16 1 21
-1 12 -8 -33 -31 -19 -38 22 -4 22 -11 40 -16 40 -5 0 -9 18 -9 40 0 22 -4 40
-10 40 -5 0 -10 -18 -10 -40 0 -22 -4 -40 -10 -40 -6 0 -10 33 -10 80 l0 80
-210 0 -210 0 0 -345z m1364 -314 l49 -50 -2 -135 c-1 -75 2 -136 6 -136 5 0
22 14 39 31 16 17 42 38 58 46 41 21 57 2 63 -79 9 -104 -18 -126 -116 -98
-19 5 -37 7 -40 4 -3 -3 6 -28 21 -55 l28 -49 -193 4 c-181 4 -290 17 -312 37
-5 5 -17 9 -28 9 -10 0 -32 13 -48 29 -69 69 -13 200 92 217 49 8 58 19 95
123 25 70 35 89 59 100 16 8 38 22 49 33 26 24 35 23 46 -6 19 -50 51 -43 52
12 1 39 14 33 82 -37z m721 -31 c8 -55 15 -287 14 -460 0 -113 0 -216 0 -230
0 -14 3 -41 6 -61 6 -30 2 -41 -28 -77 -20 -23 -37 -47 -39 -54 -3 -7 -31 16
-66 53 -34 36 -82 77 -107 90 l-45 24 0 61 c0 42 -5 65 -15 74 -8 7 -12 16 -9
21 3 5 -8 9 -25 9 -21 0 -29 -4 -25 -13 2 -7 -6 -23 -18 -35 -21 -19 -28 -20
-66 -10 -32 8 -52 23 -83 59 l-40 49 38 6 c173 27 252 288 141 469 -10 17 -18
33 -18 38 0 4 86 6 192 5 161 -3 191 -5 193 -18z m-1000 -7 c-3 -10 -15 -45
-27 -78 -23 -69 -42 -95 -72 -95 -12 0 -38 -9 -59 -20 -20 -11 -39 -20 -41
-20 -2 0 -6 27 -9 61 -8 72 -22 89 -76 89 -41 0 -40 -2 -57 63 -5 16 8 17 171
17 165 0 177 -1 170 -17z m-348 -75 c-3 -8 -6 -5 -6 6 -1 11 2 17 5 13 3 -3 4
-12 1 -19z m193 -383 c5 3 35 -1 67 -9 32 -9 102 -18 156 -22 53 -4 97 -9 97
-12 0 -18 -105 -108 -152 -131 l-57 -28 -16 39 c-17 44 -34 54 -63 39 -16 -8
-21 -6 -31 16 -7 15 -14 50 -17 78 -2 27 -2 44 2 37 3 -6 10 -10 14 -7z m-60
-82 c39 -81 70 -160 70 -175 0 -12 -272 -6 -302 7 -16 6 -16 10 -3 35 20 38
174 200 190 200 8 0 28 -30 45 -67z m142 -84 c9 -19 22 -39 27 -46 15 -16 14
-22 -6 -41 -16 -16 -16 -16 -10 1 8 21 -9 22 -29 2 -22 -22 -28 -19 -47 20
-17 36 -14 58 11 88 21 23 34 18 54 -24z m675 -36 c-3 -3 -11 -2 -17 2 -9 6
-9 10 1 16 14 8 27 -7 16 -18z m407 -253 c45 0 39 -16 -10 -26 -26 -5 -32 -2
-43 23 -10 23 -10 26 0 16 7 -7 31 -13 53 -13z m-1462 -303 c-20 -51 -36 -55
-22 -5 9 30 30 62 36 55 2 -2 -5 -24 -14 -50z m29 -13 c-10 -22 -17 -30 -19
-21 -4 18 15 57 27 57 5 0 1 -16 -8 -36z m910 -3 c-6 -11 -11 -36 -11 -56 0
-24 -4 -34 -11 -29 -7 4 -9 21 -5 47 8 46 27 88 33 70 3 -7 0 -21 -6 -32z
m-890 -28 c-10 -17 -10 -16 -11 3 0 23 13 41 18 25 2 -6 -1 -18 -7 -28z m150
7 c29 -16 26 -67 -6 -82 -19 -9 -29 -8 -50 6 -31 20 -32 50 -3 70 26 19 33 19
59 6z m772 -33 c-3 -20 -10 -37 -14 -37 -12 0 -11 23 1 56 14 36 21 26 13 -19z
m-1163 23 c0 -5 -2 -10 -4 -10 -3 0 -8 5 -11 10 -3 6 -1 10 4 10 6 0 11 -4 11
-10z m1344 -9 c23 -25 18 -48 -16 -68 -24 -15 -28 -15 -52 0 -29 20 -34 48
-10 71 21 22 57 20 78 -3z m-142 -26 c-2 -14 -6 -25 -8 -25 -2 0 -4 11 -4 25
0 14 4 25 9 25 4 0 6 -11 3 -25z m-1187 -35 c-3 -5 -11 -10 -16 -10 -6 0 -7 5
-4 10 3 6 11 10 16 10 6 0 7 -4 4 -10z m510 -65 c-15 -25 -31 -45 -36 -45 -13
0 -11 16 4 29 8 6 22 30 33 53 12 27 20 36 22 25 2 -9 -9 -37 -23 -62z m970
53 c-9 -30 -33 -68 -44 -68 -10 0 31 89 42 90 5 0 5 -10 2 -22z m-95 -24 c-18
-21 -24 -10 -9 18 8 14 14 18 17 10 2 -7 -2 -19 -8 -28z m50 31 c0 -14 -32
-65 -40 -65 -15 0 -12 16 5 30 8 7 15 19 15 26 0 8 5 14 10 14 6 0 10 -2 10
-5z m-994 -31 c-4 -9 -9 -15 -11 -12 -3 3 -3 13 1 22 4 9 9 15 11 12 3 -3 3
-13 -1 -22z m34 -18 l-23 -21 19 33 c10 18 20 28 23 21 2 -6 -7 -21 -19 -33z"/>
<path d="M1137 1599 c-9 -5 -24 -24 -32 -42 -15 -29 -15 -30 0 -12 50 64 58
67 76 33 7 -14 10 -49 6 -97 -3 -45 -2 -66 3 -51 12 37 12 138 0 161 -12 21
-26 23 -53 8z"/>
<path d="M1072 1464 c-6 -23 -12 -52 -11 -65 0 -15 6 -5 15 26 17 61 14 97 -4
39z"/>
<path d="M444 2268 c3 -13 6 -27 6 -31 0 -5 5 -5 10 -2 17 10 12 55 -6 55 -12
0 -15 -6 -10 -22z"/>
<path d="M480 2281 c0 -6 5 -13 10 -16 6 -3 10 -17 10 -31 0 -13 5 -24 11 -24
6 0 8 7 5 16 -3 9 -9 27 -12 40 -6 23 -24 34 -24 15z"/>
<path d="M482 2170 c0 -19 2 -27 5 -17 2 9 2 25 0 35 -3 9 -5 1 -5 -18z"/>
<path d="M561 1904 c0 -11 3 -14 6 -6 3 7 2 16 -1 19 -3 4 -6 -2 -5 -13z"/>
<path d="M561 1744 c0 -11 3 -14 6 -6 3 7 2 16 -1 19 -3 4 -6 -2 -5 -13z"/>
<path d="M576 1703 c-3 -16 -2 -53 3 -83 l9 -55 1 83 c1 84 -3 103 -13 55z"/>
<path d="M523 1535 c0 -22 2 -30 4 -17 2 12 2 30 0 40 -3 9 -5 -1 -4 -23z"/>
<path d="M640 1200 c0 -19 3 -21 12 -12 9 9 9 15 0 24 -9 9 -12 7 -12 -12z"/>
<path d="M498 1163 c12 -2 32 -2 45 0 12 2 2 4 -23 4 -25 0 -35 -2 -22 -4z"/>
<path d="M588 1163 c7 -3 16 -2 19 1 4 3 -2 6 -13 5 -11 0 -14 -3 -6 -6z"/>
<path d="M448 1143 c6 -2 18 -2 25 0 6 3 1 5 -13 5 -14 0 -19 -2 -12 -5z"/>
<path d="M469 523 c-13 -16 -12 -17 4 -4 16 13 21 21 13 21 -2 0 -10 -8 -17
-17z"/>
<path d="M434 485 c-10 -8 -14 -15 -8 -15 6 0 17 7 24 15 16 19 9 19 -16 0z"/>
</g>
</svg>
