<svg width="82" height="82" viewBox="0 0 82 82" fill="none" xmlns="http://www.w3.org/2000/svg">
<g filter="url(#filter0_d_218_2445)">
<circle cx="41" cy="37" r="29" fill="#FF9D00"/>
</g>
<g clip-path="url(#clip0_218_2445)">
<path d="M35.0358 37.1785L48.7501 41.7499C49.0186 41.8385 49.3043 41.8621 49.5838 41.8185C49.8631 41.7751 50.1283 41.6658 50.3572 41.4999C50.5879 41.3356 50.7763 41.1188 50.9068 40.8672C51.0372 40.6158 51.1059 40.3369 51.1072 40.0535V25.3571C51.1059 25.0738 51.0372 24.7949 50.9068 24.5434C50.7763 24.2919 50.5879 24.075 50.3572 23.9107C50.1267 23.7477 49.8609 23.6417 49.5815 23.6013C49.3022 23.561 49.0172 23.5874 48.7501 23.6785L35.0358 28.2499V37.1785Z" stroke="white" stroke-width="3" stroke-linecap="round" stroke-linejoin="round"/>
<path d="M27.8929 32.7143C27.8929 33.3005 28.0084 33.8811 28.2327 34.4227C28.4571 34.9643 28.7859 35.4565 29.2004 35.871C30.0377 36.7082 31.1732 37.1786 32.3572 37.1786H35.0357V28.25H32.3572C31.7709 28.25 31.1904 28.3655 30.6488 28.5898C30.1071 28.8142 29.615 29.143 29.2004 29.5576C28.3632 30.3948 27.8929 31.5303 27.8929 32.7143Z" stroke="white" stroke-width="3" stroke-linecap="round" stroke-linejoin="round"/>
<path d="M32.3572 37.1787V38.9645C32.3572 39.5507 32.4726 40.1313 32.697 40.6729C32.9214 41.2145 33.2502 41.7066 33.6647 42.1211C34.0793 42.5357 34.5714 42.8645 35.1131 43.089C35.6547 43.3132 36.2352 43.4288 36.8215 43.4288" stroke="white" stroke-width="3" stroke-linecap="round" stroke-linejoin="round"/>
</g>
<path d="M37.76 48.64H39.1V55.39H37.76V48.64ZM32.93 56.67H39.33V57.73H32.93V56.67ZM32.93 54.74H34.26V57.22H32.93V54.74ZM33.57 49.14H34.67V50.04C34.67 51.85 33.84 53.52 32.04 54.15L31.37 53.09C32.92 52.56 33.57 51.27 33.57 50.04V49.14ZM33.84 49.14H34.93V50.04C34.93 51.25 35.56 52.44 37.08 52.93L36.4 53.99C34.65 53.4 33.84 51.83 33.84 50.04V49.14ZM41.9592 49.41H47.8292V50.48H41.9592V49.41ZM41.1092 55.7H49.4792V56.78H41.1092V55.7ZM44.0692 52.52H45.3992V56.23H44.0692V52.52ZM47.3492 49.41H48.6792V50.3C48.6792 51.46 48.6792 52.76 48.3092 54.74L46.9792 54.59C47.3492 52.75 47.3492 51.41 47.3492 50.3V49.41Z" fill="white"/>
<defs>
<filter id="filter0_d_218_2445" x="0" y="0" width="82" height="82" filterUnits="userSpaceOnUse" color-interpolation-filters="sRGB">
<feFlood flood-opacity="0" result="BackgroundImageFix"/>
<feColorMatrix in="SourceAlpha" type="matrix" values="0 0 0 0 0 0 0 0 0 0 0 0 0 0 0 0 0 0 127 0" result="hardAlpha"/>
<feOffset dy="4"/>
<feGaussianBlur stdDeviation="6"/>
<feColorMatrix type="matrix" values="0 0 0 0 0 0 0 0 0 0 0 0 0 0 0 0 0 0 0.25 0"/>
<feBlend mode="normal" in2="BackgroundImageFix" result="effect1_dropShadow_218_2445"/>
<feBlend mode="normal" in="SourceGraphic" in2="effect1_dropShadow_218_2445" result="shape"/>
</filter>
<clipPath id="clip0_218_2445">
<rect width="25" height="25" fill="white" transform="translate(27 21)"/>
</clipPath>
</defs>
</svg>
