<svg width="19" height="19" viewBox="0 0 19 19" fill="none" xmlns="http://www.w3.org/2000/svg">
<path d="M10.6483 2.89041C10.54 2.69317 10.3755 2.52763 10.1729 2.41205C9.97031 2.29646 9.73746 2.23529 9.50001 2.23529C9.26255 2.23529 9.02969 2.29646 8.8271 2.41205C8.6245 2.52763 8.46 2.69317 8.35174 2.89041L1.25566 16.1363C1.15669 16.3196 1.10957 16.5234 1.11878 16.7286C1.12798 16.9337 1.1932 17.1331 1.30826 17.3081C1.4233 17.483 1.58436 17.6277 1.77613 17.7281C1.96789 17.8286 2.184 17.8818 2.40394 17.8824H16.596C16.816 17.8818 17.0321 17.8286 17.2238 17.7281C17.4157 17.6277 17.5767 17.483 17.6918 17.3081C17.8068 17.1331 17.872 16.9337 17.8812 16.7286C17.8905 16.5234 17.8433 16.3196 17.7443 16.1363L10.6483 2.89041Z" stroke="#F50000" stroke-width="2" stroke-linecap="round" stroke-linejoin="round"/>
<path d="M9.49999 6.78572V11.1964" stroke="#F50000" stroke-width="2" stroke-linecap="round" stroke-linejoin="round"/>
<path d="M9.49999 14.9286C9.31261 14.9286 9.1607 14.7767 9.1607 14.5893C9.1607 14.4019 9.31261 14.25 9.49999 14.25" stroke="#F50000" stroke-width="2" stroke-linecap="round" stroke-linejoin="round"/>
<path d="M9.49999 14.9286C9.68737 14.9286 9.83927 14.7767 9.83927 14.5893C9.83927 14.4019 9.68737 14.25 9.49999 14.25" stroke="#F50000" stroke-width="2" stroke-linecap="round" stroke-linejoin="round"/>
</svg>
